# xmcd
#
# Track frame offsets:
#	150
#	17754
#	31987
#	42121
#	53038
#	72281
#	90891
#	110100
#	130284
#	149220
#	166720
#	187314
#
# Disc length: 2752 seconds
#
# Revision: 0
# Processed by: cddbd v1.5.2PL0 Copyright (c) Steve Scherf et al.
# Submitted via: EasyCDDAExtractor 10.0.2.1
#
DISCID=a80abe0c
DTITLE=Varios [CD blanco) - Profesorado en Ritmos Caribeños
DYEAR=1900
DGENRE=Latin
TTITLE0=Toque de tambor
TTITLE1=Afro Chilinga
TTITLE2=Canto a Elegua
TTITLE3=Shabira Shubiru
TTITLE4=Fusion
TTITLE5=Salsa - Lola
TTITLE6=Salsa Rapida - El carrito
TTITLE7=Salsa Lenta - Cachita
TTITLE8=Merengue - Los Cueros
TTITLE9=Merengue - Mira como baila
TTITLE10=Merengue - Que vengan
TTITLE11=Merengue - La cintura
EXTD=
EXTT0=
EXTT1=
EXTT2=
EXTT3=
EXTT4=
EXTT5=
EXTT6=
EXTT7=
EXTT8=
EXTT9=
EXTT10=
EXTT11=
PLAYORDER=
